<mxfile host="app.diagrams.net" agent="Mozilla/5.0 (Windows NT 10.0; Win64; x64) AppleWebKit/537.36 (KHTML, like Gecko) Chrome/132.0.0.0 Safari/537.36" version="26.0.15">
  <diagram name="Страница — 1" id="oVZzrbnDo1yRkh9Q6_f0">
    <mxGraphModel dx="2607" dy="1418" grid="1" gridSize="10" guides="1" tooltips="1" connect="1" arrows="1" fold="1" page="1" pageScale="1" pageWidth="827" pageHeight="1169" math="0" shadow="0">
      <root>
        <mxCell id="0" />
        <mxCell id="1" parent="0" />
        <mxCell id="J1a-S7gv59uVuWgnbmxZ-1" value="Подпрограммы" style="whiteSpace=wrap;strokeWidth=2;" vertex="1" parent="1">
          <mxGeometry x="20" y="961" width="1195" height="1063" as="geometry" />
        </mxCell>
        <mxCell id="J1a-S7gv59uVuWgnbmxZ-2" value="Основная программа" style="whiteSpace=wrap;strokeWidth=2;" vertex="1" parent="1">
          <mxGeometry x="1235" y="20" width="1161" height="1739" as="geometry" />
        </mxCell>
        <mxCell id="J1a-S7gv59uVuWgnbmxZ-3" value="Начало" style="rounded=1;whiteSpace=wrap;arcSize=50;strokeWidth=2;" vertex="1" parent="1">
          <mxGeometry x="1736" y="45" width="78" height="39" as="geometry" />
        </mxCell>
        <mxCell id="J1a-S7gv59uVuWgnbmxZ-4" value="Ввод размерностей массивов n и m" style="shape=parallelogram;perimeter=parallelogramPerimeter;fixedSize=1;strokeWidth=2;whiteSpace=wrap;" vertex="1" parent="1">
          <mxGeometry x="1636" y="134" width="278" height="63" as="geometry" />
        </mxCell>
        <mxCell id="J1a-S7gv59uVuWgnbmxZ-5" value="n &gt; 0 и m &gt; 0?" style="rhombus;strokeWidth=2;whiteSpace=wrap;" vertex="1" parent="1">
          <mxGeometry x="1698" y="247" width="154" height="154" as="geometry" />
        </mxCell>
        <mxCell id="J1a-S7gv59uVuWgnbmxZ-6" value="Создание массивов A и B" style="whiteSpace=wrap;strokeWidth=2;" vertex="1" parent="1">
          <mxGeometry x="1352" y="474" width="245" height="54" as="geometry" />
        </mxCell>
        <mxCell id="J1a-S7gv59uVuWgnbmxZ-7" value="Ошибка: Размерности должны быть положительными" style="whiteSpace=wrap;strokeWidth=2;" vertex="1" parent="1">
          <mxGeometry x="2096" y="1421" width="260" height="102" as="geometry" />
        </mxCell>
        <mxCell id="J1a-S7gv59uVuWgnbmxZ-8" value="Заполнение массивов случайными числами" style="whiteSpace=wrap;strokeWidth=2;" vertex="1" parent="1">
          <mxGeometry x="1345" y="578" width="260" height="78" as="geometry" />
        </mxCell>
        <mxCell id="J1a-S7gv59uVuWgnbmxZ-9" value="Вывод массивов на экран" style="whiteSpace=wrap;strokeWidth=2;" vertex="1" parent="1">
          <mxGeometry x="1522" y="706" width="249" height="54" as="geometry" />
        </mxCell>
        <mxCell id="J1a-S7gv59uVuWgnbmxZ-10" value="Поиск максимума в массиве A" style="whiteSpace=wrap;strokeWidth=2;" vertex="1" parent="1">
          <mxGeometry x="1387" y="833" width="260" height="78" as="geometry" />
        </mxCell>
        <mxCell id="J1a-S7gv59uVuWgnbmxZ-11" value="Поиск максимума в массиве B" style="whiteSpace=wrap;strokeWidth=2;" vertex="1" parent="1">
          <mxGeometry x="1810" y="833" width="260" height="78" as="geometry" />
        </mxCell>
        <mxCell id="J1a-S7gv59uVuWgnbmxZ-12" value="Сравнение maxA и maxB" style="rhombus;strokeWidth=2;whiteSpace=wrap;" vertex="1" parent="1">
          <mxGeometry x="1833" y="986" width="234" height="234" as="geometry" />
        </mxCell>
        <mxCell id="J1a-S7gv59uVuWgnbmxZ-13" value="Удвоение элементов массива A до середины" style="whiteSpace=wrap;strokeWidth=2;" vertex="1" parent="1">
          <mxGeometry x="1377" y="1293" width="260" height="78" as="geometry" />
        </mxCell>
        <mxCell id="J1a-S7gv59uVuWgnbmxZ-14" value="Удвоение элементов массива B до середины" style="whiteSpace=wrap;strokeWidth=2;" vertex="1" parent="1">
          <mxGeometry x="1687" y="1293" width="260" height="78" as="geometry" />
        </mxCell>
        <mxCell id="J1a-S7gv59uVuWgnbmxZ-15" value="Изменений нет" style="whiteSpace=wrap;strokeWidth=2;" vertex="1" parent="1">
          <mxGeometry x="1997" y="1305" width="172" height="54" as="geometry" />
        </mxCell>
        <mxCell id="J1a-S7gv59uVuWgnbmxZ-16" value="Вывод измененных массивов" style="whiteSpace=wrap;strokeWidth=2;" vertex="1" parent="1">
          <mxGeometry x="1786" y="1433" width="260" height="78" as="geometry" />
        </mxCell>
        <mxCell id="J1a-S7gv59uVuWgnbmxZ-17" value="Конец" style="rounded=1;whiteSpace=wrap;arcSize=50;strokeWidth=2;" vertex="1" parent="1">
          <mxGeometry x="2041" y="1634" width="70" height="39" as="geometry" />
        </mxCell>
        <mxCell id="J1a-S7gv59uVuWgnbmxZ-18" value="FillArray" style="rounded=1;whiteSpace=wrap;arcSize=50;strokeWidth=2;" vertex="1" parent="1">
          <mxGeometry x="142" y="1083" width="85" height="39" as="geometry" />
        </mxCell>
        <mxCell id="J1a-S7gv59uVuWgnbmxZ-19" value="Для каждого i от 0 до array.Length-1" style="shape=hexagon;perimeter=hexagonPerimeter2;fixedSize=1;strokeWidth=2;whiteSpace=wrap;" vertex="1" parent="1">
          <mxGeometry x="62" y="1300" width="247" height="63" as="geometry" />
        </mxCell>
        <mxCell id="J1a-S7gv59uVuWgnbmxZ-20" value="array[i] = rnd.Next(-100, 101)" style="whiteSpace=wrap;strokeWidth=2;" vertex="1" parent="1">
          <mxGeometry x="55" y="1433" width="260" height="78" as="geometry" />
        </mxCell>
        <mxCell id="J1a-S7gv59uVuWgnbmxZ-21" value="PrintArray" style="rounded=1;whiteSpace=wrap;arcSize=50;strokeWidth=2;" vertex="1" parent="1">
          <mxGeometry x="433" y="1083" width="97" height="39" as="geometry" />
        </mxCell>
        <mxCell id="J1a-S7gv59uVuWgnbmxZ-22" value="Для каждого i от 0 до array.Length-1" style="shape=hexagon;perimeter=hexagonPerimeter2;fixedSize=1;strokeWidth=2;whiteSpace=wrap;" vertex="1" parent="1">
          <mxGeometry x="358" y="1300" width="247" height="63" as="geometry" />
        </mxCell>
        <mxCell id="J1a-S7gv59uVuWgnbmxZ-23" value="Вывод array[i]" style="whiteSpace=wrap;strokeWidth=2;" vertex="1" parent="1">
          <mxGeometry x="399" y="1445" width="164" height="54" as="geometry" />
        </mxCell>
        <mxCell id="J1a-S7gv59uVuWgnbmxZ-24" value="FindMax" style="rounded=1;whiteSpace=wrap;arcSize=50;strokeWidth=2;" vertex="1" parent="1">
          <mxGeometry x="696" y="1083" width="83" height="39" as="geometry" />
        </mxCell>
        <mxCell id="J1a-S7gv59uVuWgnbmxZ-25" value="max = array[0]" style="whiteSpace=wrap;strokeWidth=2;" vertex="1" parent="1">
          <mxGeometry x="655" y="1305" width="165" height="54" as="geometry" />
        </mxCell>
        <mxCell id="J1a-S7gv59uVuWgnbmxZ-26" value="Для каждого i от 1 до array.Length-1" style="shape=hexagon;perimeter=hexagonPerimeter2;fixedSize=1;strokeWidth=2;whiteSpace=wrap;" vertex="1" parent="1">
          <mxGeometry x="614" y="1440" width="247" height="63" as="geometry" />
        </mxCell>
        <mxCell id="J1a-S7gv59uVuWgnbmxZ-27" value="array[i] &gt; max?" style="rhombus;strokeWidth=2;whiteSpace=wrap;" vertex="1" parent="1">
          <mxGeometry x="657" y="1573" width="161" height="161" as="geometry" />
        </mxCell>
        <mxCell id="J1a-S7gv59uVuWgnbmxZ-28" value="max = array[i]" style="whiteSpace=wrap;strokeWidth=2;" vertex="1" parent="1">
          <mxGeometry x="722" y="1836" width="161" height="54" as="geometry" />
        </mxCell>
        <mxCell id="J1a-S7gv59uVuWgnbmxZ-29" value="MaxEnd" style="whiteSpace=wrap;strokeWidth=2;" vertex="1" parent="1">
          <mxGeometry x="680" y="1945" width="114" height="54" as="geometry" />
        </mxCell>
        <mxCell id="J1a-S7gv59uVuWgnbmxZ-30" value="DoubleHalf" style="rounded=1;whiteSpace=wrap;arcSize=50;strokeWidth=2;" vertex="1" parent="1">
          <mxGeometry x="1005" y="1452" width="104" height="39" as="geometry" />
        </mxCell>
        <mxCell id="J1a-S7gv59uVuWgnbmxZ-31" value="mid = array.Length / 2" style="whiteSpace=wrap;strokeWidth=2;" vertex="1" parent="1">
          <mxGeometry x="946" y="1626" width="221" height="54" as="geometry" />
        </mxCell>
        <mxCell id="J1a-S7gv59uVuWgnbmxZ-32" value="Для каждого i от 0 до mid-1" style="shape=hexagon;perimeter=hexagonPerimeter2;fixedSize=1;strokeWidth=2;whiteSpace=wrap;" vertex="1" parent="1">
          <mxGeometry x="933" y="1832" width="247" height="63" as="geometry" />
        </mxCell>
        <mxCell id="J1a-S7gv59uVuWgnbmxZ-33" value="array[i] *= 2" style="whiteSpace=wrap;strokeWidth=2;" vertex="1" parent="1">
          <mxGeometry x="984" y="1945" width="146" height="54" as="geometry" />
        </mxCell>
        <mxCell id="J1a-S7gv59uVuWgnbmxZ-34" value="" style="curved=1;startArrow=none;endArrow=block;exitX=0.5;exitY=1;entryX=0.5;entryY=0;rounded=0;" edge="1" parent="1" source="J1a-S7gv59uVuWgnbmxZ-3" target="J1a-S7gv59uVuWgnbmxZ-4">
          <mxGeometry relative="1" as="geometry">
            <Array as="points" />
          </mxGeometry>
        </mxCell>
        <mxCell id="J1a-S7gv59uVuWgnbmxZ-35" value="" style="curved=1;startArrow=none;endArrow=block;exitX=0.5;exitY=1;entryX=0.5;entryY=0;rounded=0;" edge="1" parent="1" source="J1a-S7gv59uVuWgnbmxZ-4" target="J1a-S7gv59uVuWgnbmxZ-5">
          <mxGeometry relative="1" as="geometry">
            <Array as="points" />
          </mxGeometry>
        </mxCell>
        <mxCell id="J1a-S7gv59uVuWgnbmxZ-36" value="Да" style="curved=1;startArrow=none;endArrow=block;exitX=0;exitY=0.69;entryX=0.5;entryY=-0.01;rounded=0;" edge="1" parent="1" source="J1a-S7gv59uVuWgnbmxZ-5" target="J1a-S7gv59uVuWgnbmxZ-6">
          <mxGeometry relative="1" as="geometry">
            <Array as="points">
              <mxPoint x="1475" y="437" />
            </Array>
          </mxGeometry>
        </mxCell>
        <mxCell id="J1a-S7gv59uVuWgnbmxZ-37" value="Нет" style="curved=1;startArrow=none;endArrow=block;exitX=1;exitY=0.62;entryX=0.5;entryY=0;rounded=0;" edge="1" parent="1" source="J1a-S7gv59uVuWgnbmxZ-5" target="J1a-S7gv59uVuWgnbmxZ-7">
          <mxGeometry relative="1" as="geometry">
            <Array as="points">
              <mxPoint x="2226" y="437" />
            </Array>
          </mxGeometry>
        </mxCell>
        <mxCell id="J1a-S7gv59uVuWgnbmxZ-38" value="" style="curved=1;startArrow=none;endArrow=block;exitX=0.5;exitY=0.99;entryX=0.5;entryY=-0.01;rounded=0;" edge="1" parent="1" source="J1a-S7gv59uVuWgnbmxZ-6" target="J1a-S7gv59uVuWgnbmxZ-8">
          <mxGeometry relative="1" as="geometry">
            <Array as="points" />
          </mxGeometry>
        </mxCell>
        <mxCell id="J1a-S7gv59uVuWgnbmxZ-39" value="" style="curved=1;startArrow=none;endArrow=block;exitX=0.9;exitY=0.99;entryX=0.5;entryY=-0.01;rounded=0;" edge="1" parent="1" source="J1a-S7gv59uVuWgnbmxZ-8" target="J1a-S7gv59uVuWgnbmxZ-9">
          <mxGeometry relative="1" as="geometry">
            <Array as="points">
              <mxPoint x="1647" y="681" />
            </Array>
          </mxGeometry>
        </mxCell>
        <mxCell id="J1a-S7gv59uVuWgnbmxZ-40" value="" style="curved=1;startArrow=none;endArrow=block;exitX=0.28;exitY=0.99;entryX=0.5;entryY=-0.01;rounded=0;" edge="1" parent="1" source="J1a-S7gv59uVuWgnbmxZ-9" target="J1a-S7gv59uVuWgnbmxZ-10">
          <mxGeometry relative="1" as="geometry">
            <Array as="points">
              <mxPoint x="1517" y="796" />
            </Array>
          </mxGeometry>
        </mxCell>
        <mxCell id="J1a-S7gv59uVuWgnbmxZ-41" value="" style="curved=1;startArrow=none;endArrow=block;exitX=1;exitY=0.99;entryX=0.5;entryY=-0.01;rounded=0;" edge="1" parent="1" source="J1a-S7gv59uVuWgnbmxZ-9" target="J1a-S7gv59uVuWgnbmxZ-11">
          <mxGeometry relative="1" as="geometry">
            <Array as="points">
              <mxPoint x="1940" y="796" />
            </Array>
          </mxGeometry>
        </mxCell>
        <mxCell id="J1a-S7gv59uVuWgnbmxZ-42" value="" style="curved=1;startArrow=none;endArrow=block;exitX=0.89;exitY=0.99;entryX=0;entryY=0.23;rounded=0;" edge="1" parent="1" source="J1a-S7gv59uVuWgnbmxZ-10" target="J1a-S7gv59uVuWgnbmxZ-12">
          <mxGeometry relative="1" as="geometry">
            <Array as="points">
              <mxPoint x="1682" y="936" />
              <mxPoint x="1682" y="961" />
            </Array>
          </mxGeometry>
        </mxCell>
        <mxCell id="J1a-S7gv59uVuWgnbmxZ-43" value="" style="curved=1;startArrow=none;endArrow=block;exitX=0.95;exitY=0.99;entryX=1;entryY=0.11;rounded=0;" edge="1" parent="1" source="J1a-S7gv59uVuWgnbmxZ-11" target="J1a-S7gv59uVuWgnbmxZ-12">
          <mxGeometry relative="1" as="geometry">
            <Array as="points">
              <mxPoint x="2134" y="936" />
              <mxPoint x="2134" y="961" />
            </Array>
          </mxGeometry>
        </mxCell>
        <mxCell id="J1a-S7gv59uVuWgnbmxZ-44" value="maxA &gt; maxB" style="curved=1;startArrow=none;endArrow=block;exitX=0;exitY=0.67;entryX=0.5;entryY=-0.01;rounded=0;" edge="1" parent="1" source="J1a-S7gv59uVuWgnbmxZ-12" target="J1a-S7gv59uVuWgnbmxZ-13">
          <mxGeometry relative="1" as="geometry">
            <Array as="points">
              <mxPoint x="1507" y="1256" />
            </Array>
          </mxGeometry>
        </mxCell>
        <mxCell id="J1a-S7gv59uVuWgnbmxZ-45" value="maxB &gt; maxA" style="curved=1;startArrow=none;endArrow=block;exitX=0.07;exitY=1;entryX=0.5;entryY=-0.01;rounded=0;" edge="1" parent="1" source="J1a-S7gv59uVuWgnbmxZ-12" target="J1a-S7gv59uVuWgnbmxZ-14">
          <mxGeometry relative="1" as="geometry">
            <Array as="points">
              <mxPoint x="1817" y="1256" />
            </Array>
          </mxGeometry>
        </mxCell>
        <mxCell id="J1a-S7gv59uVuWgnbmxZ-46" value="maxA == maxB" style="curved=1;startArrow=none;endArrow=block;exitX=0.93;exitY=1;entryX=0.5;entryY=-0.01;rounded=0;" edge="1" parent="1" source="J1a-S7gv59uVuWgnbmxZ-12" target="J1a-S7gv59uVuWgnbmxZ-15">
          <mxGeometry relative="1" as="geometry">
            <Array as="points">
              <mxPoint x="2083" y="1256" />
            </Array>
          </mxGeometry>
        </mxCell>
        <mxCell id="J1a-S7gv59uVuWgnbmxZ-47" value="" style="curved=1;startArrow=none;endArrow=block;exitX=0.95;exitY=0.99;entryX=0.08;entryY=-0.01;rounded=0;" edge="1" parent="1" source="J1a-S7gv59uVuWgnbmxZ-13" target="J1a-S7gv59uVuWgnbmxZ-16">
          <mxGeometry relative="1" as="geometry">
            <Array as="points">
              <mxPoint x="1701" y="1396" />
            </Array>
          </mxGeometry>
        </mxCell>
        <mxCell id="J1a-S7gv59uVuWgnbmxZ-48" value="" style="curved=1;startArrow=none;endArrow=block;exitX=0.79;exitY=0.99;entryX=0.55;entryY=-0.01;rounded=0;" edge="1" parent="1" source="J1a-S7gv59uVuWgnbmxZ-14" target="J1a-S7gv59uVuWgnbmxZ-16">
          <mxGeometry relative="1" as="geometry">
            <Array as="points">
              <mxPoint x="1940" y="1396" />
            </Array>
          </mxGeometry>
        </mxCell>
        <mxCell id="J1a-S7gv59uVuWgnbmxZ-49" value="" style="curved=1;startArrow=none;endArrow=block;exitX=0.5;exitY=0.99;entryX=0.83;entryY=-0.01;rounded=0;" edge="1" parent="1" source="J1a-S7gv59uVuWgnbmxZ-15" target="J1a-S7gv59uVuWgnbmxZ-16">
          <mxGeometry relative="1" as="geometry">
            <Array as="points">
              <mxPoint x="2083" y="1396" />
            </Array>
          </mxGeometry>
        </mxCell>
        <mxCell id="J1a-S7gv59uVuWgnbmxZ-50" value="" style="curved=1;startArrow=none;endArrow=block;exitX=0.5;exitY=0.99;entryX=0.07;entryY=-0.01;rounded=0;" edge="1" parent="1" source="J1a-S7gv59uVuWgnbmxZ-16" target="J1a-S7gv59uVuWgnbmxZ-17">
          <mxGeometry relative="1" as="geometry">
            <Array as="points">
              <mxPoint x="1916" y="1548" />
            </Array>
          </mxGeometry>
        </mxCell>
        <mxCell id="J1a-S7gv59uVuWgnbmxZ-51" value="" style="curved=1;startArrow=none;endArrow=block;exitX=0.5;exitY=1;entryX=0.89;entryY=-0.01;rounded=0;" edge="1" parent="1" source="J1a-S7gv59uVuWgnbmxZ-7" target="J1a-S7gv59uVuWgnbmxZ-17">
          <mxGeometry relative="1" as="geometry">
            <Array as="points">
              <mxPoint x="2226" y="1548" />
            </Array>
          </mxGeometry>
        </mxCell>
        <mxCell id="J1a-S7gv59uVuWgnbmxZ-52" value="" style="curved=1;startArrow=none;endArrow=block;exitX=0.51;exitY=1;entryX=0.5;entryY=0;rounded=0;" edge="1" parent="1" source="J1a-S7gv59uVuWgnbmxZ-18" target="J1a-S7gv59uVuWgnbmxZ-19">
          <mxGeometry relative="1" as="geometry">
            <Array as="points" />
          </mxGeometry>
        </mxCell>
        <mxCell id="J1a-S7gv59uVuWgnbmxZ-53" value="" style="curved=1;startArrow=none;endArrow=block;exitX=0.5;exitY=1;entryX=0.5;entryY=-0.01;rounded=0;" edge="1" parent="1" source="J1a-S7gv59uVuWgnbmxZ-19" target="J1a-S7gv59uVuWgnbmxZ-20">
          <mxGeometry relative="1" as="geometry">
            <Array as="points" />
          </mxGeometry>
        </mxCell>
        <mxCell id="J1a-S7gv59uVuWgnbmxZ-54" value="" style="curved=1;startArrow=none;endArrow=block;exitX=0.5;exitY=1;entryX=0.5;entryY=0;rounded=0;" edge="1" parent="1" source="J1a-S7gv59uVuWgnbmxZ-21" target="J1a-S7gv59uVuWgnbmxZ-22">
          <mxGeometry relative="1" as="geometry">
            <Array as="points" />
          </mxGeometry>
        </mxCell>
        <mxCell id="J1a-S7gv59uVuWgnbmxZ-55" value="" style="curved=1;startArrow=none;endArrow=block;exitX=0.5;exitY=1;entryX=0.5;entryY=-0.01;rounded=0;" edge="1" parent="1" source="J1a-S7gv59uVuWgnbmxZ-22" target="J1a-S7gv59uVuWgnbmxZ-23">
          <mxGeometry relative="1" as="geometry">
            <Array as="points" />
          </mxGeometry>
        </mxCell>
        <mxCell id="J1a-S7gv59uVuWgnbmxZ-56" value="" style="curved=1;startArrow=none;endArrow=block;exitX=0.5;exitY=1;entryX=0.5;entryY=-0.01;rounded=0;" edge="1" parent="1" source="J1a-S7gv59uVuWgnbmxZ-24" target="J1a-S7gv59uVuWgnbmxZ-25">
          <mxGeometry relative="1" as="geometry">
            <Array as="points" />
          </mxGeometry>
        </mxCell>
        <mxCell id="J1a-S7gv59uVuWgnbmxZ-57" value="" style="curved=1;startArrow=none;endArrow=block;exitX=0.5;exitY=0.99;entryX=0.5;entryY=0;rounded=0;" edge="1" parent="1" source="J1a-S7gv59uVuWgnbmxZ-25" target="J1a-S7gv59uVuWgnbmxZ-26">
          <mxGeometry relative="1" as="geometry">
            <Array as="points" />
          </mxGeometry>
        </mxCell>
        <mxCell id="J1a-S7gv59uVuWgnbmxZ-58" value="" style="curved=1;startArrow=none;endArrow=block;exitX=0.5;exitY=1;entryX=0.5;entryY=0;rounded=0;" edge="1" parent="1" source="J1a-S7gv59uVuWgnbmxZ-26" target="J1a-S7gv59uVuWgnbmxZ-27">
          <mxGeometry relative="1" as="geometry">
            <Array as="points" />
          </mxGeometry>
        </mxCell>
        <mxCell id="J1a-S7gv59uVuWgnbmxZ-59" value="Да" style="curved=1;startArrow=none;endArrow=block;exitX=0.81;exitY=1;entryX=0.5;entryY=0;rounded=0;" edge="1" parent="1" source="J1a-S7gv59uVuWgnbmxZ-27" target="J1a-S7gv59uVuWgnbmxZ-28">
          <mxGeometry relative="1" as="geometry">
            <Array as="points">
              <mxPoint x="803" y="1759" />
            </Array>
          </mxGeometry>
        </mxCell>
        <mxCell id="J1a-S7gv59uVuWgnbmxZ-60" value="Нет" style="curved=1;startArrow=none;endArrow=block;exitX=0;exitY=0.65;entryX=0;entryY=0.33;rounded=0;" edge="1" parent="1" source="J1a-S7gv59uVuWgnbmxZ-27" target="J1a-S7gv59uVuWgnbmxZ-29">
          <mxGeometry relative="1" as="geometry">
            <Array as="points">
              <mxPoint x="396" y="1759" />
              <mxPoint x="396" y="1920" />
            </Array>
          </mxGeometry>
        </mxCell>
        <mxCell id="J1a-S7gv59uVuWgnbmxZ-61" value="" style="curved=1;startArrow=none;endArrow=block;exitX=0.5;exitY=1;entryX=0.8;entryY=-0.01;rounded=0;" edge="1" parent="1" source="J1a-S7gv59uVuWgnbmxZ-28" target="J1a-S7gv59uVuWgnbmxZ-29">
          <mxGeometry relative="1" as="geometry">
            <Array as="points">
              <mxPoint x="803" y="1920" />
            </Array>
          </mxGeometry>
        </mxCell>
        <mxCell id="J1a-S7gv59uVuWgnbmxZ-62" value="" style="curved=1;startArrow=none;endArrow=block;exitX=0.5;exitY=1;entryX=0.5;entryY=0;rounded=0;" edge="1" parent="1" source="J1a-S7gv59uVuWgnbmxZ-30" target="J1a-S7gv59uVuWgnbmxZ-31">
          <mxGeometry relative="1" as="geometry">
            <Array as="points" />
          </mxGeometry>
        </mxCell>
        <mxCell id="J1a-S7gv59uVuWgnbmxZ-63" value="" style="curved=1;startArrow=none;endArrow=block;exitX=0.5;exitY=1;entryX=0.5;entryY=-0.01;rounded=0;" edge="1" parent="1" source="J1a-S7gv59uVuWgnbmxZ-31" target="J1a-S7gv59uVuWgnbmxZ-32">
          <mxGeometry relative="1" as="geometry">
            <Array as="points" />
          </mxGeometry>
        </mxCell>
        <mxCell id="J1a-S7gv59uVuWgnbmxZ-64" value="" style="curved=1;startArrow=none;endArrow=block;exitX=0.5;exitY=0.99;entryX=0.5;entryY=-0.01;rounded=0;" edge="1" parent="1" source="J1a-S7gv59uVuWgnbmxZ-32" target="J1a-S7gv59uVuWgnbmxZ-33">
          <mxGeometry relative="1" as="geometry">
            <Array as="points" />
          </mxGeometry>
        </mxCell>
        <mxCell id="J1a-S7gv59uVuWgnbmxZ-65" value="" style="curved=1;dashed=1;dashPattern=2 3;startArrow=none;endArrow=block;exitX=0.16;exitY=0.99;entryX=1.01;entryY=0.36;rounded=0;" edge="1" parent="1" source="J1a-S7gv59uVuWgnbmxZ-8" target="J1a-S7gv59uVuWgnbmxZ-18">
          <mxGeometry relative="1" as="geometry">
            <Array as="points">
              <mxPoint x="1332" y="681" />
              <mxPoint x="1332" y="961" />
            </Array>
          </mxGeometry>
        </mxCell>
        <mxCell id="J1a-S7gv59uVuWgnbmxZ-66" value="" style="curved=1;dashed=1;dashPattern=2 3;startArrow=none;endArrow=block;exitX=0;exitY=0.99;entryX=1;entryY=0.3;rounded=0;" edge="1" parent="1" source="J1a-S7gv59uVuWgnbmxZ-9" target="J1a-S7gv59uVuWgnbmxZ-21">
          <mxGeometry relative="1" as="geometry">
            <Array as="points">
              <mxPoint x="1352" y="796" />
              <mxPoint x="1352" y="961" />
            </Array>
          </mxGeometry>
        </mxCell>
        <mxCell id="J1a-S7gv59uVuWgnbmxZ-67" value="" style="curved=1;dashed=1;dashPattern=2 3;startArrow=none;endArrow=block;exitX=0.33;exitY=0.99;entryX=1;entryY=0.29;rounded=0;" edge="1" parent="1" source="J1a-S7gv59uVuWgnbmxZ-10" target="J1a-S7gv59uVuWgnbmxZ-24">
          <mxGeometry relative="1" as="geometry">
            <Array as="points">
              <mxPoint x="1444" y="936" />
              <mxPoint x="1444" y="961" />
            </Array>
          </mxGeometry>
        </mxCell>
        <mxCell id="J1a-S7gv59uVuWgnbmxZ-68" value="" style="curved=1;dashed=1;dashPattern=2 3;startArrow=none;endArrow=block;exitX=0;exitY=0.82;entryX=1;entryY=0.33;rounded=0;" edge="1" parent="1" source="J1a-S7gv59uVuWgnbmxZ-11" target="J1a-S7gv59uVuWgnbmxZ-24">
          <mxGeometry relative="1" as="geometry">
            <Array as="points">
              <mxPoint x="1609" y="936" />
              <mxPoint x="1609" y="961" />
            </Array>
          </mxGeometry>
        </mxCell>
        <mxCell id="J1a-S7gv59uVuWgnbmxZ-69" value="" style="curved=1;dashed=1;dashPattern=2 3;startArrow=none;endArrow=block;exitX=0.33;exitY=0.99;entryX=1;entryY=0.23;rounded=0;" edge="1" parent="1" source="J1a-S7gv59uVuWgnbmxZ-13" target="J1a-S7gv59uVuWgnbmxZ-30">
          <mxGeometry relative="1" as="geometry">
            <Array as="points">
              <mxPoint x="1434" y="1396" />
            </Array>
          </mxGeometry>
        </mxCell>
        <mxCell id="J1a-S7gv59uVuWgnbmxZ-70" value="" style="curved=1;dashed=1;dashPattern=2 3;startArrow=none;endArrow=block;exitX=0;exitY=0.98;entryX=1;entryY=0.31;rounded=0;" edge="1" parent="1" source="J1a-S7gv59uVuWgnbmxZ-14" target="J1a-S7gv59uVuWgnbmxZ-30">
          <mxGeometry relative="1" as="geometry">
            <Array as="points">
              <mxPoint x="1599" y="1396" />
            </Array>
          </mxGeometry>
        </mxCell>
      </root>
    </mxGraphModel>
  </diagram>
</mxfile>
